<svg xmlns="http://www.w3.org/2000/svg" xmlns:xlink="http://www.w3.org/1999/xlink" width="500" zoomAndPan="magnify" viewBox="0 0 375 374.999991" height="500" preserveAspectRatio="xMidYMid meet" version="1.0"><defs><clipPath id="2ba130cb7b"><path d="M 187.5 0 C 83.945312 0 0 83.945312 0 187.5 C 0 291.054688 83.945312 375 187.5 375 C 291.054688 375 375 291.054688 375 187.5 C 375 83.945312 291.054688 0 187.5 0 Z M 187.5 0 " clip-rule="nonzero"/></clipPath><clipPath id="78d688823c"><path d="M 53.09375 68.6875 L 321.59375 68.6875 L 321.59375 337.1875 L 53.09375 337.1875 Z M 53.09375 68.6875 " clip-rule="nonzero"/></clipPath></defs><g clip-path="url(#2ba130cb7b)"><rect x="-37.5" width="450" fill="#766960" y="-37.499999" height="449.999989" fill-opacity="1"/></g><g clip-path="url(#78d688823c)"><path fill="#ffffff" d="M 133.734375 283.730469 C 118.882812 283.730469 106.988281 295.761719 106.988281 310.613281 C 106.988281 325.460938 118.882812 337.492188 133.734375 337.492188 C 148.585938 337.492188 160.617188 325.460938 160.617188 310.613281 C 160.617188 295.761719 148.585938 283.730469 133.734375 283.730469 Z M 53.09375 68.6875 L 53.09375 95.566406 L 79.972656 95.566406 L 128.292969 197.511719 L 110.148438 230.441406 C 108.0625 234.339844 106.855469 238.707031 106.855469 243.410156 C 106.855469 258.261719 118.882812 270.289062 133.734375 270.289062 L 295.019531 270.289062 L 295.019531 243.410156 L 139.445312 243.410156 C 137.566406 243.410156 136.085938 241.933594 136.085938 240.050781 C 136.085938 239.445312 136.222656 238.90625 136.492188 238.4375 L 148.519531 216.53125 L 248.648438 216.53125 C 258.730469 216.53125 267.53125 210.953125 272.167969 202.6875 L 320.21875 115.460938 C 321.292969 113.578125 321.898438 111.359375 321.898438 109.007812 C 321.898438 101.546875 315.851562 95.566406 308.457031 95.566406 L 109.746094 95.566406 L 96.976562 68.6875 Z M 268.136719 283.730469 C 253.285156 283.730469 241.390625 295.761719 241.390625 310.613281 C 241.390625 325.460938 253.285156 337.492188 268.136719 337.492188 C 282.988281 337.492188 295.019531 325.460938 295.019531 310.613281 C 295.019531 295.761719 282.988281 283.730469 268.136719 283.730469 Z M 268.136719 283.730469 " fill-opacity="1" fill-rule="nonzero"/></g></svg>